<svg xmlns="http://www.w3.org/2000/svg" xmlns:xlink="http://www.w3.org/1999/xlink" version="1.2" width="5.94mm" height="6.82mm" viewBox="0.0000 -0.0000 3.3773 3.8783">
<style type="text/css">
<![CDATA[
tspan { white-space: pre; }
]]>
</style>
<a style="color:inherit;" xlink:href="textedit:///tmp/half_note.ly:15:4:5">
<g transform="translate(2.0000, 3.3333)">
<path transform="scale(0.0040, -0.0040)" d="M314 65c0 23 -19 41 -42 41c-39 0 -204 -110 -231 -143c-7 -8 -10 -18 -10 -28c0 -23 19 -41 42 -41c39 0 203 110 230 143c7 8 11 18 11 28zM262 136c41 0 82 -14 82 -71c0 -26 -16 -112 -74 -151c-25 -17 -87 -50 -187 -50c-41 0 -83 14 -83 71c0 26 16 112 74 151
c25 17 88 50 188 50z" fill="currentColor"/>
</g>
</a>
<g transform="translate(3.3123, 3.3333)">
<rect x="-0.0650" y="-3.3333" width="0.1300" height="3.0743" ry="0.0400" fill="currentColor"/>
</g>
</svg>
